<?xml version="1.0" encoding="UTF-8"?>
<svg version="1.1" xmlns="http://www.w3.org/2000/svg" width="209" height="208">
<path d="M0 0 C68.97 0 137.94 0 209 0 C209 68.64 209 137.28 209 208 C140.03 208 71.06 208 0 208 C0 139.36 0 70.72 0 0 Z " fill="#000000" transform="translate(0,0)"/>
<path d="M0 0 C1.15680267 0.00424484 1.15680267 0.00424484 2.3369751 0.00857544 C4.79251832 0.01974237 7.2476926 0.04484021 9.703125 0.0703125 C11.37108847 0.08034682 13.03905768 0.08947189 14.70703125 0.09765625 C18.78920397 0.11967025 22.871102 0.15417583 26.953125 0.1953125 C26.953125 1.8453125 26.953125 3.4953125 26.953125 5.1953125 C25.54619385 5.21718628 25.54619385 5.21718628 24.11083984 5.23950195 C20.61043121 5.30077967 17.11078051 5.37497182 13.61083984 5.45776367 C12.09987596 5.49089176 10.58879193 5.51896105 9.07763672 5.54174805 C6.89759418 5.57551931 4.71864061 5.62784146 2.5390625 5.68359375 C0.57525635 5.72286987 0.57525635 5.72286987 -1.42822266 5.76293945 C-6.70032387 6.39287409 -9.95284527 8.2439823 -13.921875 11.6953125 C-16.76177826 15.3597038 -16.62989688 19.08512507 -16.3984375 23.57421875 C-15.75258954 28.38937412 -14.27620923 31.07658114 -10.70776367 34.32397461 C-5.86089541 37.42121498 -0.14673129 36.73837973 5.40234375 36.69921875 C7.21494438 36.7133506 7.21494438 36.7133506 9.06416321 36.72776794 C12.92315629 36.75640516 16.78153433 36.7594978 20.640625 36.7578125 C24.48177345 36.7614319 28.32247263 36.771123 32.16352844 36.79856873 C34.54985455 36.81521836 36.93632767 36.81834364 39.32267761 36.80555725 C50.03967748 36.87256148 59.25569036 38.71810907 67.953125 45.1953125 C68.77683594 45.80375 69.60054688 46.4121875 70.44921875 47.0390625 C73.04687857 49.2760488 74.76508426 51.39603237 76.640625 54.2578125 C77.22199219 55.11503906 77.80335938 55.97226563 78.40234375 56.85546875 C83.08450146 66.9392089 82.32562213 78.47682742 82.32373047 89.36523438 C82.32811584 92.1894104 82.36456744 95.01203533 82.40234375 97.8359375 C82.48948338 111.67847257 81.11567536 122.8967433 70.953125 133.1953125 C59.7417217 142.88045753 48.43325451 143.63564028 34.2265625 143.48828125 C32.62660116 143.48267505 31.02663462 143.4784098 29.42666626 143.47541809 C25.24763374 143.46404978 21.06892186 143.43465329 16.89001465 143.40130615 C12.61291845 143.37043085 8.33576965 143.35687571 4.05859375 143.34179688 C-4.31004178 143.3097745 -12.67841833 143.25867724 -21.046875 143.1953125 C-21.046875 141.2153125 -21.046875 139.2353125 -21.046875 137.1953125 C-20.14200348 137.19388748 -19.23713196 137.19246246 -18.30484009 137.19099426 C-9.74290401 137.17310389 -1.18148078 137.13131214 7.38020897 137.06322193 C11.78104736 137.02905077 16.18154224 137.00385742 20.58251953 136.99975586 C24.83631292 136.99545156 29.08933274 136.96681423 33.34288406 136.92188072 C34.95898544 136.90897335 36.57517972 136.90457388 38.19132614 136.90915871 C48.91765332 136.93248306 57.12171951 135.96646244 65.703125 128.9453125 C70.957885 122.52282805 75.02323547 117.14342107 75.13012695 108.66137695 C75.14296219 107.76977371 75.15579742 106.87817047 75.16902161 105.95954895 C75.17640854 105.00223373 75.18379547 104.04491852 75.19140625 103.05859375 C75.20351387 101.56757393 75.20351387 101.56757393 75.21586609 100.0464325 C75.22968739 97.94251235 75.24041827 95.83856996 75.24829102 93.73461914 C75.25979928 91.59229929 75.28023266 89.45000785 75.30981445 87.30786133 C75.35267118 84.20374161 75.36868639 81.10047331 75.37890625 77.99609375 C75.40516838 76.57530266 75.40516838 76.57530266 75.43196106 75.12580872 C75.40136986 65.63795522 72.1685875 58.80605907 65.74609375 51.91796875 C59.99023481 46.38782976 53.93258784 43.94197401 45.9987793 43.95581055 C44.27119637 43.9502137 44.27119637 43.9502137 42.50871277 43.94450378 C41.27736099 43.94863785 40.04600922 43.95277191 38.77734375 43.95703125 C36.82161771 43.94555762 34.86589134 43.93405424 32.91017628 43.92084217 C28.11010717 43.89077261 23.31015886 43.87994438 18.51000977 43.88989258 C15.81110173 43.89463582 13.11283395 43.88607675 10.41401672 43.86347961 C7.88088634 43.84298321 5.34750225 43.8418595 2.81437683 43.86296082 C-5.77544476 43.76540466 -11.94953107 42.18131556 -18.203125 36.09765625 C-18.6465625 35.44925781 -19.09 34.80085938 -19.546875 34.1328125 C-20.0109375 33.48183594 -20.475 32.83085938 -20.953125 32.16015625 C-23.84954666 26.95694162 -23.71471447 20.81500244 -22.65625 15.078125 C-20.67405936 8.54706096 -15.96170155 4.79382055 -10.42260742 1.1171875 C-6.98518121 -0.21666528 -3.63123459 -0.05031791 0 0 Z " fill="#F0F0F0" transform="translate(83.046875,35.8046875)"/>
</svg>
